<svg height="512" viewBox="0 0 64 64" width="512" xmlns="http://www.w3.org/2000/svg" xmlns:xlink="http://www.w3.org/1999/xlink"><linearGradient id="gradient_ice" gradientUnits="userSpaceOnUse" x1="-7.497" x2="61.963" y1="65.414" y2=".585"><stop offset="0" stop-color="#fff200"/><stop offset="1" stop-color="#cd118c"/></linearGradient><linearGradient id="gradient_ice-2" x1="-27.524" x2="41.935" xlink:href="#gradient_ice" y1="43.956" y2="-20.873"/><linearGradient id="gradient_ice-3" x1="-21.006" x2="48.453" xlink:href="#gradient_ice" y1="50.939" y2="-13.89"/><linearGradient id="gradient_ice-4" x1="-11.23" x2="58.23" xlink:href="#gradient_ice" y1="61.414" y2="-3.415"/><linearGradient id="gradient_ice-5" x1="-20.84" x2="48.619" xlink:href="#gradient_ice" y1="51.117" y2="-13.711"/><linearGradient id="gradient_ice-6" x1="-11.063" x2="58.396" xlink:href="#gradient_ice" y1="61.593" y2="-3.236"/><linearGradient id="gradient_ice-7" x1="-5.477" x2="63.983" xlink:href="#gradient_ice" y1="67.578" y2="2.749"/><g id="white_board" data-name="white board"><path d="m61 2h-58a1 1 0 0 0 -1 1v39a1 1 0 0 0 1 1h23.42l-8.05 17h-8.37v2h9a.982.982 0 0 0 .9-.57l8.73-18.43h6.74l8.73 18.43a.982.982 0 0 0 .9.57h9v-2h-8.37l-8.05-17h23.42a1 1 0 0 0 1-1v-39a1 1 0 0 0 -1-1zm-1 39h-56v-3h56zm-15-5v-4h10v4zm15 0h-3v-5a1 1 0 0 0 -1-1h-12a1 1 0 0 0 -1 1v5h-39v-32h56z" fill="url(#gradient_ice)"/><path d="m8 7h6v2h-6z" fill="url(#gradient_ice-2)"/><path d="m18 7h14v2h-14z" fill="url(#gradient_ice-3)"/><path d="m36 7h20v2h-20z" fill="url(#gradient_ice-4)"/><path d="m8 12h24v2h-24z" fill="url(#gradient_ice-5)"/><path d="m36 12h10v2h-10z" fill="url(#gradient_ice-6)"/><path d="m50 12h6v2h-6z" fill="url(#gradient_ice-7)"/></g></svg>